<?xml version="1.0" encoding="UTF-8"?>
<svg width="33px" height="32px" viewBox="0 0 33 32" version="1.1" xmlns="http://www.w3.org/2000/svg" xmlns:xlink="http://www.w3.org/1999/xlink">
    <!-- Generator: Sketch 39.1 (31720) - http://www.bohemiancoding.com/sketch -->
    <title>Twitter</title>
    <desc>Created with Sketch.</desc>
    <defs>
        <ellipse id="path-1" cx="16.3529412" cy="16" rx="15.7843137" ry="16"></ellipse>
        <mask id="mask-2" maskContentUnits="userSpaceOnUse" maskUnits="objectBoundingBox" x="0" y="0" width="31.5686275" height="32" fill="white">
            <use xlink:href="#path-1"></use>
        </mask>
    </defs>
    <g id="Page-1" stroke="none" stroke-width="1" fill="none" fill-rule="evenodd">
        <g id="200_Home_Page-Copy" transform="translate(-1476.000000, -342.000000)">
            <g id="Twitter" transform="translate(1476.000000, 342.000000)">
                <use id="Oval-1" stroke="#7D7D7D" mask="url(#mask-2)" stroke-width="3" xlink:href="#path-1"></use>
                <path d="M24.0144915,9.88028952 C23.568973,10.1695594 22.5460693,10.5899073 22.0416026,10.5899073 L22.0416026,10.5907708 C21.4655804,9.9808 20.6546174,9.6 19.7552322,9.6 C18.0084248,9.6 16.5919656,11.0358146 16.5919656,12.8058006 C16.5919656,13.0517232 16.6200767,13.2916013 16.6720397,13.5216356 L16.6715285,13.5216356 C14.3020174,13.4586006 11.7105137,12.25472 10.1504322,10.1942552 C9.19124706,11.8772013 10.0212915,13.7489067 11.1097878,14.4308927 C10.7371878,14.4593879 10.0512767,14.3873727 9.72842484,14.0680533 C9.7067878,15.1850667 10.2366397,16.6650921 12.1686397,17.2020114 C11.7965508,17.4049321 11.1378989,17.3467327 10.8515063,17.3035581 C10.9520248,18.2464914 12.2546767,19.4792127 13.6791434,19.4792127 C13.1714397,20.0745041 11.2612471,21.1542146 9.11764706,20.8107175 C10.5734619,21.7085765 12.2701804,22.2285714 14.0660545,22.2285714 C19.1694989,22.2285714 23.1328248,18.0359721 22.9195211,12.8638273 C22.9186693,12.8581283 22.9186693,12.8524292 22.9181582,12.8462121 C22.9186693,12.8329143 22.9195211,12.8196165 22.9195211,12.8058006 C22.9195211,12.7897397 22.9181582,12.7745422 22.9176471,12.7589994 C23.3822471,12.4369168 24.0056322,11.8671848 24.4509804,11.1173283 C24.1926989,11.2615314 23.4178545,11.5502832 22.6968471,11.621953 C23.159573,11.3687771 23.8451434,10.5396521 24.0144915,9.88028952" id="Fill-1" fill="#7D7D7D"></path>
            </g>
        </g>
    </g>
</svg>