<?xml version="1.0" encoding="UTF-8"?>
<svg width="32px" height="32px" viewBox="0 0 32 32" version="1.1" xmlns="http://www.w3.org/2000/svg" xmlns:xlink="http://www.w3.org/1999/xlink">
    <!-- Generator: Sketch 39.1 (31720) - http://www.bohemiancoding.com/sketch -->
    <title>WeChat Copy</title>
    <desc>Created with Sketch.</desc>
    <defs>
        <circle id="path-1" cx="15.7849998" cy="15.7849998" r="15.7849998"></circle>
        <mask id="mask-2" maskContentUnits="userSpaceOnUse" maskUnits="objectBoundingBox" x="0" y="0" width="31.5699997" height="31.5699997" fill="white">
            <use xlink:href="#path-1"></use>
        </mask>
    </defs>
    <g id="Page-1" stroke="none" stroke-width="1" fill="none" fill-rule="evenodd">
        <g id="200_Home_Page-Copy" transform="translate(-1389.000000, -342.000000)">
            <g id="WeChat-Copy" transform="translate(1389.000000, 342.000000)">
                <use id="Oval-1-Copy-59" stroke="#7D7D7D" mask="url(#mask-2)" stroke-width="3" xlink:href="#path-1"></use>
                <g id="Group-79" transform="translate(6.765000, 8.118000)" fill="#7D7D7D">
                    <path d="M12.6980545,5.23000349 C11.0068944,5.31835758 9.53630511,5.83102085 8.34237242,6.98926268 C7.13607714,8.15944802 6.58541812,9.59336858 6.73593438,11.3709272 C6.07492005,11.2890687 5.47285501,11.1989685 4.86736756,11.1479815 C4.65825124,11.1303806 4.41009148,11.1553851 4.23296423,11.2553335 C3.64500791,11.5870979 3.08135769,11.9616773 2.413289,12.3792814 C2.53586721,11.8248507 2.61521128,11.3393572 2.75566984,10.8723726 C2.85897079,10.5291537 2.81112688,10.3381272 2.49493796,10.1146228 C0.464819354,8.68133085 -0.390923204,6.53631699 0.249486812,4.32795361 C0.841983067,2.2849835 2.29699686,1.0460007 4.27403317,0.400142762 C6.97249984,-0.481302805 10.0051056,0.41781358 11.6459773,2.56024316 C12.2386133,3.33412722 12.6020175,4.20272129 12.6980545,5.23000349 L12.6980545,5.23000349 Z M4.91472256,4.54188925 C4.93029803,4.13797485 4.58030407,3.77408171 4.16458584,3.76192866 C3.73894961,3.74942638 3.38888581,4.07469516 3.37645337,4.49411518 C3.36388125,4.91919265 3.68901034,5.25982736 4.11771976,5.2707232 C4.54272739,5.28147935 4.89900741,4.9557915 4.91472256,4.54188925 L4.91472256,4.54188925 Z M8.97558839,3.76164928 C8.55833357,3.76933224 8.20575534,4.12470427 8.21315893,4.53022511 C8.22077204,4.95055312 8.56664514,5.279384 8.99570378,5.27421546 C9.42587995,5.26904692 9.75212657,4.93672378 9.74807555,4.50752544 C9.74451345,4.08621961 9.40017694,3.75389647 8.97558839,3.76164928 L8.97558839,3.76164928 Z" id="Shape"></path>
                    <path d="M16.49749,15.7731262 C15.9619874,15.5346749 15.4707666,15.1769281 14.9477662,15.1223092 C14.4267914,15.0678999 13.8791357,15.3684435 13.3340643,15.4241799 C11.6737757,15.5940433 10.1863538,15.1313193 8.95987323,13.9971042 C6.62725536,11.839588 6.96055633,8.53144319 9.65930238,6.76338352 C12.0578541,5.19200774 15.5754645,5.71584623 17.2665548,7.89620172 C18.7423126,9.79878311 18.5688871,12.3243831 16.7673018,13.9227191 C16.2459777,14.3853034 16.0583737,14.7659594 16.392862,15.3757772 C16.4546051,15.4883676 16.4616595,15.6309215 16.49749,15.7731262 L16.49749,15.7731262 Z M10.401826,9.87128236 C10.7427401,9.87163159 11.0234477,9.60482318 11.036369,9.2680998 C11.0499888,8.91161025 10.7632745,8.61260324 10.4062961,8.61113649 C10.0528797,8.60953005 9.75680619,8.91272777 9.76909893,9.26390909 C9.78069322,9.59944511 10.0633565,9.87086329 10.401826,9.87128236 L10.401826,9.87128236 Z M14.331383,8.61253339 C14.0005964,8.6102285 13.7195396,8.88101808 13.7060595,9.21522703 C13.6917412,9.57262458 13.9695153,9.86611382 14.3232111,9.86702181 C14.6653125,9.86813933 14.9356132,9.60943296 14.9480456,9.26900779 C14.9613162,8.9107721 14.6834024,8.61497797 14.331383,8.61253339 L14.331383,8.61253339 Z" id="Shape"></path>
                </g>
            </g>
        </g>
    </g>
</svg>