<?xml version="1.0" encoding="UTF-8"?>
<svg width="32px" height="32px" viewBox="0 0 32 32" version="1.1" xmlns="http://www.w3.org/2000/svg" xmlns:xlink="http://www.w3.org/1999/xlink">
    <!-- Generator: Sketch 39.1 (31720) - http://www.bohemiancoding.com/sketch -->
    <title>Youtube</title>
    <desc>Created with Sketch.</desc>
    <defs>
        <path d="M0,16 C0,7.16344357 6.96107192,0 15.5479903,0 C24.1349086,0 31.0959805,7.16344357 31.0959805,16 C31.0959805,24.8365564 24.1349086,32 15.5479903,32 C6.96107192,32 0,24.8365564 0,16 Z" id="path-1"></path>
        <mask id="mask-2" maskContentUnits="userSpaceOnUse" maskUnits="objectBoundingBox" x="0" y="0" width="31.0959805" height="32" fill="white">
            <use xlink:href="#path-1"></use>
        </mask>
    </defs>
    <g id="Page-1" stroke="none" stroke-width="1" fill="none" fill-rule="evenodd">
        <g id="200_Home_Page-Copy" transform="translate(-1346.000000, -342.000000)">
            <g id="Youtube" transform="translate(1346.000000, 342.000000)">
                <use id="back" stroke="#7D7D7D" mask="url(#mask-2)" stroke-width="3" xlink:href="#path-1"></use>
                <path d="M23.6402443,12.7793842 C23.6402443,12.7793842 23.478261,11.5776247 22.9819608,11.0484146 C22.3521408,10.3535196 21.6462456,10.3502496 21.3227965,10.3099184 C19.0053488,10.1333333 15.5291771,10.1333333 15.5291771,10.1333333 L15.5219319,10.1333333 C15.5219319,10.1333333 12.0457602,10.1333333 9.72831244,10.3099184 C9.40434587,10.3502496 8.69896818,10.3535196 8.06863067,11.0484146 C7.57233044,11.5776247 7.41086467,12.7793842 7.41086467,12.7793842 C7.41086467,12.7793842 7.24525876,14.1909747 7.24525876,15.6020201 L7.24525876,16.925318 C7.24525876,18.3369085 7.41086467,19.747954 7.41086467,19.747954 C7.41086467,19.747954 7.57233044,20.9497134 8.06863067,21.4789236 C8.69896818,22.1738185 9.52648023,22.1520179 9.89495339,22.224505 C11.2198007,22.3585788 15.5255545,22.4 15.5255545,22.4 C15.5255545,22.4 19.0053488,22.3945498 21.3227965,22.2179648 C21.6462456,22.1770886 22.3521408,22.1738185 22.9819608,21.4789236 C23.478261,20.9497134 23.6402443,19.747954 23.6402443,19.747954 C23.6402443,19.747954 23.8058502,18.3369085 23.8058502,16.925318 L23.8058502,15.6020201 C23.8058502,14.1909747 23.6402443,12.7793842 23.6402443,12.7793842 L23.6402443,12.7793842 Z" fill="#7D7D7D"></path>
                <polygon id="Path" fill="#FFFFFF" points="13.8156734 18.528754 13.8151559 13.6285185 18.2896207 16.087084"></polygon>
            </g>
        </g>
    </g>
</svg>