<?xml version="1.0" encoding="UTF-8"?>
<svg width="37px" height="31px" viewBox="0 0 37 31" version="1.1" xmlns="http://www.w3.org/2000/svg" xmlns:xlink="http://www.w3.org/1999/xlink">
    <!-- Generator: Sketch 47.1 (45422) - http://www.bohemiancoding.com/sketch -->
    <title>my-house</title>
    <desc>Created with Sketch.</desc>
    <defs>
        <polyline id="path-1" points="21.137033 4.84985632 21.4597701 5.01167385 23.9195402 4.98868534 25.5747126 4.73581178 30.1954023 4.91971983 32.4022989 4.06914511 33.5287356 3.26454741 34.7011494 2.04615661 36.5632184 2.27604167 38.3908046 4.78232759 37.5632184 7.62931034 30.8505747 12.5028736 22.3908046 18.112069 17.7931034 17.4683908 11.4518678 13.5075431 6.85057471 15.3502155 3.44827586 14.7065374 1.88505747 11.2122845 0.597701149 4.8674569 1.88505747 2.38469828 5.37931034 0.637571839 9.89924569 1.35569325 11.1176365 1.33180675 13.2095905 1.23985273 16.4509698 2.06743894 19.2555675 3.44674928 19.9084052 4.68354885"></polyline>
    </defs>
    <g id="Page-1" stroke="none" stroke-width="1" fill="none" fill-rule="evenodd">
        <g id="101_InsureMyCar-Insurance-Copy" transform="translate(-745.000000, -608.000000)">
            <g id="my-house" transform="translate(743.500000, 608.000000)">
                <g id="Group" transform="translate(14.862069, 0.758621)" stroke="#373737">
                    <g id="Group-11">
                        <circle id="Oval-465" stroke-width="1.2" fill="#FFC83D" cx="7.72167488" cy="7.35221675" r="7.09359606"></circle>
                        <path d="M7.98471593,10.1544236 C7.19343842,10.1544236 6.20333005,9.68380296 5.78370443,9.36600985 C5.65885714,9.27166502 5.63747126,9.09787192 5.7368867,8.97869951 C5.83630213,8.85952709 6.0177931,8.8391133 6.14264039,8.93400985 C6.50388834,9.2071133 7.36741544,9.60269951 7.98471593,9.60269951 C8.58525452,9.60269951 9.47363547,9.29649261 9.47363547,8.63828571 C9.47363547,8.05069951 8.86847291,7.81897537 8.0777734,7.5773202 L7.84368473,7.50449261 C7.21829228,7.30366502 5.91779967,6.8849064 5.91779967,5.87966502 C5.91779967,4.90807882 6.70965517,4.25538916 7.88761248,4.25538916 C9.07481773,4.25538916 9.8192775,4.83745813 9.85048933,4.86228571 C9.97302463,4.95994089 9.98978654,5.13373399 9.88690312,5.25069951 C9.7851757,5.3671133 9.60368473,5.38366502 9.48057143,5.28656158 C9.46901149,5.27773399 8.852289,4.8071133 7.88703448,4.8071133 C7.02870936,4.8071133 6.49521839,5.21814778 6.49521839,5.87966502 C6.49521839,6.41649261 7.26973399,6.73814778 8.02748768,6.98200985 L8.2529064,7.05207882 C8.96846634,7.27056158 10.0504762,7.60104433 10.0504762,8.63828571 C10.0516322,9.68435468 8.84304105,10.1544236 7.98471593,10.1544236 L7.98471593,10.1544236 Z" id="Shape" stroke-width="0.25" fill="#373737"></path>
                        <path d="M7.89418062,10.9759409 C7.73102791,10.9759409 7.59861412,10.8523547 7.59861412,10.7000788 L7.59861412,3.8493202 C7.59861412,3.69704433 7.73102791,3.57345813 7.89418062,3.57345813 C8.05733333,3.57345813 8.18974713,3.69704433 8.18974713,3.8493202 L8.18974713,10.7000788 C8.18974713,10.8523547 8.05733333,10.9759409 7.89418062,10.9759409 L7.89418062,10.9759409 Z" id="Shape" stroke-width="0.25" fill="#373737"></path>
                    </g>
                </g>
                <path d="M33.5490302,18.2724946 L27.3122559,22.3073729" id="Path-1787" stroke="#373737" stroke-width="1.2" stroke-linecap="round" stroke-linejoin="round"></path>
                <g id="Shape" transform="translate(0.000000, 14.241379)">
                    <mask id="mask-2" fill="white">
                        <use xlink:href="#path-1"></use>
                    </mask>
                    <g id="Mask"></g>
                    <path d="M19.5707586,16.1561731 L11.778066,12.7115363 C10.773036,12.2675275 9.6179369,12.3505444 8.68709611,12.9333529 L6.47775789,14.3168423 C6.25781952,14.4541394 5.96819956,14.3880264 5.83052678,14.168088 C5.69304182,13.9483375 5.75953045,13.6585297 5.979281,13.5210448 L8.18861922,12.1375554 C9.38391196,11.388901 10.8676977,11.2824065 12.1578401,11.852631 L19.9505326,15.2972678 C20.6003933,15.5844461 21.3458547,15.5282876 21.9451915,15.147011 L36.1123404,6.13479677 C36.4859164,5.89701541 36.6087513,5.40849303 36.3914424,5.02252091 L35.8764373,4.10689362 C35.7652472,3.90930594 35.5832487,3.76825238 35.3642494,3.70984006 C35.1448745,3.65123991 34.9172355,3.6833573 34.7222773,3.79961849 L33.7782891,4.36308144 C33.3671489,4.60856346 32.8331739,4.49117535 32.5627117,4.096 L31.9740807,3.23596772 C31.716766,2.85938665 31.2152839,2.75890242 30.8326926,3.00701394 L29.44,3.90930594 C29.0346823,4.17187968 28.499956,4.06763903 28.2234835,3.67152458 L27.736088,2.9735818 C27.4753925,2.60000587 26.9570066,2.50534409 26.5813646,2.76284666 L23.1363522,5.12244167 L24.5797564,5.12244167 C26.0791313,5.12244167 27.2990286,6.34215114 27.2990286,7.84152605 C27.2990286,9.34090095 26.0793191,10.5606104 24.5797564,10.5606104 L19.2565341,10.5606104 C18.7171123,10.5606104 18.1763756,10.4342069 17.6927366,10.194923 L14.6631842,8.69648716 C14.4308496,8.58154072 14.3356244,8.29999707 14.450383,8.06747469 C14.5653294,7.83495231 14.8464974,7.73953925 15.0795833,7.85486134 L18.1091357,9.35329714 C18.4641174,9.52872194 18.8607953,9.6215055 19.2565341,9.6215055 L24.5797564,9.6215055 C25.5613089,9.6215055 26.3599237,8.8230785 26.3599237,7.84152605 C26.3599237,6.85997359 25.5613089,6.06154659 24.5797564,6.06154659 L21.6198855,6.06154659 C21.6172561,6.06154659 18.6538166,6.02210418 18.6538166,6.02210418 C18.573617,6.02097726 18.49492,5.99937784 18.4254263,5.95937197 L13.5693147,3.1597124 C11.9003375,2.19731768 9.86398239,2.11523991 8.12269406,2.93996185 L2.87760528,5.42426999 C2.64301687,5.53527219 2.36335143,5.43516361 2.25216141,5.20095084 C2.14115921,4.96655026 2.24107997,4.68650917 2.47548056,4.57550697 L7.72056933,2.09101101 C8.45551284,1.7427909 9.2357212,1.53412179 10.0243815,1.46293764 L10.0243815,-5.75614967 L7.61407483,-5.75614967 C7.42418782,-5.75614967 7.25289508,-5.87053265 7.18020836,-6.04595745 C7.10752164,-6.22138225 7.14771533,-6.4232898 7.28200734,-6.5575818 L19.291281,-18.5668555 C19.4734674,-18.7492296 19.7689098,-18.7501687 19.9525987,-18.5696728 L32.1609626,-6.56039912 C32.296945,-6.42667058 32.3384534,-6.22419956 32.2663302,-6.04783566 C32.1940191,-5.87147175 32.0223507,-5.75614967 31.8319002,-5.75614967 L29.0572208,-5.75614967 L29.0572208,2.94615994 C29.0572208,2.97996772 30.3221952,2.21854145 30.3221952,2.21854145 C31.1358357,1.69114013 32.2020954,1.90525605 32.7494057,2.70537344 L33.3216963,3.54155246 L34.2412678,2.99292737 C34.6554131,2.74575495 35.1403668,2.67795158 35.6061629,2.80210125 C36.0719589,2.92625092 36.4588701,3.22601321 36.6951489,3.64616875 L37.2101541,4.56179604 C37.671818,5.38238591 37.4111225,6.42122377 36.6166398,6.92683786 L22.4494908,15.9390521 C21.9500748,16.2566574 21.3806016,16.4179956 20.8081233,16.4179956 C20.3885312,16.4179956 19.9672487,16.3314101 19.5707586,16.1561731 Z M18.788672,5.08450183 L21.4773294,5.12037564 L26.0505825,1.98789729 C26.6918034,1.54895965 27.5266676,1.59121937 28.1179281,2.03391343 L28.1179281,-6.22570213 C28.1179281,-6.48508291 28.3280998,-6.69525459 28.5874806,-6.69525459 L30.6848775,-6.69525459 L19.6261658,-17.5736581 L8.74757447,-6.69525459 L10.493934,-6.69525459 C10.7533147,-6.69525459 10.9634864,-6.48508291 10.9634864,-6.22570213 L10.9634864,1.44340426 C12.0306853,1.49467938 13.0860514,1.79669552 14.0384916,2.34588408 L18.788672,5.08450183 L18.788672,5.08450183 Z" stroke="#373737" stroke-width="0.25" fill="#373737" mask="url(#mask-2)"></path>
                </g>
            </g>
        </g>
    </g>
</svg>