<?xml version="1.0" encoding="UTF-8"?>
<svg width="29px" height="28px" viewBox="0 0 29 28" version="1.1" xmlns="http://www.w3.org/2000/svg" xmlns:xlink="http://www.w3.org/1999/xlink">
    <!-- Generator: Sketch 47.1 (45422) - http://www.bohemiancoding.com/sketch -->
    <title>Page 1</title>
    <desc>Created with Sketch.</desc>
    <defs></defs>
    <g id="Page-1" stroke="none" stroke-width="1" fill="none" fill-rule="evenodd">
        <g id="101_InsureMyCar-Insurance-Copy" transform="translate(-161.000000, -609.000000)">
            <g id="Page-1" transform="translate(161.500000, 609.000000)">
                <path d="M22.2068966,16.4137931 C19.0124828,16.4137931 16.4137931,19.0124828 16.4137931,22.2068966 C16.4137931,25.4013108 19.0124828,28 22.2068966,28 C25.4013103,28 28,25.4013108 28,22.2068966 C28,19.0124828 25.4013103,16.4137931 22.2068966,16.4137931 L22.2068966,16.4137931 Z" id="Fill-1" fill="#373737"></path>
                <path d="M22.2068966,27.0344828 C19.5449655,27.0344828 17.3793103,24.8688276 17.3793103,22.2068966 C17.3793103,19.5449655 19.5449655,17.3793103 22.2068966,17.3793103 C24.8688276,17.3793103 27.0344828,19.5449655 27.0344828,22.2068966 C27.0344828,24.8688276 24.8688276,27.0344828 22.2068966,27.0344828 L22.2068966,27.0344828 Z" id="Path" fill="#FFC83D"></path>
                <path d="M25.1034483,21.7241379 L22.6896552,21.7241379 L22.6896552,19.3103448 C22.6896552,19.0433793 22.4738621,18.8275862 22.2068966,18.8275862 C21.939931,18.8275862 21.7241379,19.0433793 21.7241379,19.3103448 L21.7241379,22.2068966 C21.7241379,22.4738621 21.939931,22.6896552 22.2068966,22.6896552 L25.1034483,22.6896552 C25.3704138,22.6896552 25.5862069,22.4738621 25.5862069,22.2068966 C25.5862069,21.939931 25.3704138,21.7241379 25.1034483,21.7241379 L25.1034483,21.7241379 Z" id="Fill-3" fill="#373737"></path>
                <path d="M13.0344828,10.137931 L12.0689655,10.137931 L8.68965517,10.137931 L7.72413793,10.137931 L3.37931034,10.137931 L3.37931034,14.4827586 L3.37931034,15.4482759 L3.37931034,18.8275862 L3.37931034,19.7931034 L3.37931034,24.137931 L7.72413793,24.137931 L8.68965517,24.137931 L13.0344828,24.137931 L13.0344828,19.7931034 L13.0344828,18.8275862 L13.0344828,15.4482759 L16.4137931,15.4482759 L17.3793103,15.4482759 L21.7241379,15.4482759 L21.7241379,10.137931 L17.3793103,10.137931 L16.4137931,10.137931 L13.0344828,10.137931 L13.0344828,10.137931 Z M17.3793103,11.1034483 L20.7586207,11.1034483 L20.7586207,14.4827586 L17.3793103,14.4827586 L17.3793103,11.1034483 L17.3793103,11.1034483 Z M8.68965517,11.1034483 L12.0689655,11.1034483 L12.0689655,14.4827586 L8.68965517,14.4827586 L8.68965517,11.1034483 L8.68965517,11.1034483 Z M4.34482759,11.1034483 L7.72413793,11.1034483 L7.72413793,14.4827586 L4.34482759,14.4827586 L4.34482759,11.1034483 L4.34482759,11.1034483 Z M4.34482759,15.4482759 L7.72413793,15.4482759 L7.72413793,18.8275862 L4.34482759,18.8275862 L4.34482759,15.4482759 L4.34482759,15.4482759 Z M7.72413793,23.1724138 L4.34482759,23.1724138 L4.34482759,19.7931034 L7.72413793,19.7931034 L7.72413793,23.1724138 L7.72413793,23.1724138 Z M12.0689655,23.1724138 L8.68965517,23.1724138 L8.68965517,19.7931034 L12.0689655,19.7931034 L12.0689655,23.1724138 L12.0689655,23.1724138 Z M12.0689655,18.8275862 L8.68965517,18.8275862 L8.68965517,15.4482759 L12.0689655,15.4482759 L12.0689655,18.8275862 L12.0689655,18.8275862 Z M16.4137931,14.4827586 L13.0344828,14.4827586 L13.0344828,11.1034483 L16.4137931,11.1034483 L16.4137931,14.4827586 L16.4137931,14.4827586 Z" id="Fill-4" fill="#373737"></path>
                <path d="M15.9310345,26.5517241 L0.965517241,26.5517241 L0.965517241,7.72413793 L24.137931,7.72413793 L24.137931,14 C24.137931,14.2669655 24.3537241,14.4827586 24.6206897,14.4827586 C24.8876552,14.4827586 25.1034483,14.2669655 25.1034483,14 L25.1034483,7.24137931 L25.1034483,2.4137931 C25.1034483,2.14682759 24.8876552,1.93103448 24.6206897,1.93103448 L22.2068966,1.93103448 L22.2068966,0.482758621 C22.2068966,0.215793103 21.9911034,0 21.7241379,0 L18.3448276,0 C18.0778621,0 17.862069,0.215793103 17.862069,0.482758621 L17.862069,1.93103448 L7.24137931,1.93103448 L7.24137931,0.482758621 C7.24137931,0.215793103 7.02558621,0 6.75862069,0 L3.37931034,0 C3.11234483,0 2.89655172,0.215793103 2.89655172,0.482758621 L2.89655172,1.93103448 L0.482758621,1.93103448 C0.215793103,1.93103448 0,2.14682759 0,2.4137931 L0,7.24137931 L0,27.0344828 C0,27.3014488 0.215793103,27.5172414 0.482758621,27.5172414 L15.9310345,27.5172414 C16.198,27.5172414 16.4137931,27.3014488 16.4137931,27.0344828 C16.4137931,26.7675168 16.198,26.5517241 15.9310345,26.5517241 L15.9310345,26.5517241 Z M18.8275862,0.965517241 L21.2413793,0.965517241 L21.2413793,2.4137931 L21.2413793,3.86206897 L18.8275862,3.86206897 L18.8275862,2.4137931 L18.8275862,0.965517241 L18.8275862,0.965517241 Z M3.86206897,0.965517241 L6.27586207,0.965517241 L6.27586207,2.4137931 L6.27586207,3.86206897 L3.86206897,3.86206897 L3.86206897,2.4137931 L3.86206897,0.965517241 L3.86206897,0.965517241 Z M0.965517241,2.89655172 L2.89655172,2.89655172 L2.89655172,4.34482759 C2.89655172,4.6117931 3.11234483,4.82758621 3.37931034,4.82758621 L6.75862069,4.82758621 C7.02558621,4.82758621 7.24137931,4.6117931 7.24137931,4.34482759 L7.24137931,2.89655172 L17.862069,2.89655172 L17.862069,4.34482759 C17.862069,4.6117931 18.0778621,4.82758621 18.3448276,4.82758621 L21.7241379,4.82758621 C21.9911034,4.82758621 22.2068966,4.6117931 22.2068966,4.34482759 L22.2068966,2.89655172 L24.137931,2.89655172 L24.137931,6.75862069 L0.965517241,6.75862069 L0.965517241,2.89655172 L0.965517241,2.89655172 Z" id="Fill-5" fill="#373737"></path>
            </g>
        </g>
    </g>
</svg>