<?xml version="1.0" encoding="utf-8"?>
<!-- Generator: Adobe Illustrator 19.2.1, SVG Export Plug-In . SVG Version: 6.00 Build 0)  -->
<svg version="1.1" id="Layer_1" xmlns="http://www.w3.org/2000/svg" xmlns:xlink="http://www.w3.org/1999/xlink" x="0px" y="0px"
	 viewBox="0 0 322.6 52.3" style="enable-background:new 0 0 322.6 52.3;" xml:space="preserve">
<style type="text/css">
	.st0{fill:#EC1C24;}
	.st1{fill:#7B303E;}
</style>
<g id="XMLID_1118_">
	<g id="XMLID_1119_">
		<path id="XMLID_1120_" class="st0" d="M229.8,24.4c2.2-4.7,6.3-12.4,9.6-17.3c1.4-2.1,2.8-4.6,5-6.1c0.9-0.7,2-1.1,3.2-0.9
			c0.6,0.1,1.2,0.5,1.7,0.8c1.5,1.2-0.3,3.5-1,4.7c-1.1,1.9-2.5,3.7-3.7,5.5c-2.9,4.7-5.8,9.5-8.3,14.6c-1.4,2.8-2.6,5.6-3.8,8.4
			c-0.4,1.1-3.2,7.1-2.2,7.7c1.2,0.7,2.9-1.6,3.6-2.2c0.6-0.5,2-1.7,2.8-1.4c2,0.8-0.4,4.3-1,5.3c-1.7,2.8-4.1,5.3-7.4,5.4
			c-2.8,0.1-5.1-2.1-5.4-5.1c-0.2-1.9,0.2-3.8,0.6-5.6C224.6,33.4,227.3,28.9,229.8,24.4"/>
		<path id="XMLID_1121_" class="st0" d="M220.6,37.7c0,0.3-0.1,0.7-0.3,1.1c-0.8,1.8-3.3,2.7-4.9,3.7c-2.6,1.7-5.3,3.3-8.2,4.7
			c-4.8,2.3-9.2,4.9-16.8,1.5c-5.8-2.6-6.8-9.8-4-17.3c2.4-6.4,6.9-12,12.3-16.9c5.4-4.9,11.4-9.5,15.7-10c1.6-0.2,3.2,0.1,4.5,1.2
			c2.5,2.2,2.2,6.5,0.8,9.2c-0.8,1.7-1.7,2.8-3.5,3.1c-1.5,0.2-3.4-0.3-3.1-2.4c0.2-1.2,1.5-3.4,0.7-4.6c-1.1-1.5-5.1,2-6,2.7
			c-1.7,1.3-3.3,2.7-4.9,4.2c-2.7,2.6-5,6-6.9,9.3c-2.2,3.9-4.2,8.4-4.2,13c0,1.5,0.1,3.1,0.8,4.4c2.1,3.5,7.4,1,10.1,0
			c2.7-1,5.3-2.2,7.8-3.5c2.6-1.4,5-3.1,7.5-4.6C219.7,35.7,220.6,36.5,220.6,37.7"/>
		<path id="XMLID_1122_" class="st0" d="M252.2,7.9c1.2,3.4,2.6,6.6,6.5,7.7C258.7,12.5,256.6,6.3,252.2,7.9"/>
		<path id="XMLID_1123_" class="st0" d="M251.9,27c-0.1-0.8-0.5-1.5-1.4-2.3c-1.1-1-2.7-1.4-3.8-0.1c-0.8,1-1.1,2.3-1.6,3.4
			c-0.7,1.8-1.3,3.6-2,5.4c-1.4,3.9-2.5,7.9-3.2,11.9c0.8,1,1.4,2.2,3.5,2c1.9-3.9,3.9-7.8,5.6-11.8c0.9-2.1,1.7-4.1,2.5-6.3
			C251.8,28.5,252,27.7,251.9,27"/>
		<path id="XMLID_1124_" class="st0" d="M272.3,35.5c-0.1,0.2-0.2,0.3-0.2,0.4c-0.5,0.7-1.1,1.3-1.7,1.9c-2.2,2-4.1,4.4-6.4,6.3
			c-1.7,1.4-3.7,2.3-5.9,1.5c-2.7-1-5-4.7-4.2-9.7c1-6.4,6-15.5,9.3-18.2c2.4-2,5.4-1.9,7.8,0.1c1.5,1.3,3.5,3.7,3.5,5.8
			c0,0.6-0.1,0.9-0.3,1.1c-0.6,0.5-1.8-0.3-2.5-0.9c-0.9-0.7-1.8-1.6-3-1.3c-0.8,0.2-1.7,1.2-2.3,1.7c-0.9,0.8-1.7,1.7-2.5,2.7
			c-1.5,2-2.7,4.3-3.6,6.6c-0.4,1.2-3.1,6.4-0.4,6.6c0.9,0.1,1.6-0.4,2.4-0.7c0.9-0.3,1.7-0.7,2.6-1c1.3-0.5,2.7-1.2,4-1.9
			c1.1-0.6,2.3-1.5,3.7-1.8C272.8,34.6,272.5,35.1,272.3,35.5"/>
		<path id="XMLID_1125_" class="st0" d="M301.8,20.5c-0.4-0.5-1.3-1.3-2-1.5c-1.3-0.3-3.3,0.6-4.4,1.3c-1.3,0.8-2.4,1.8-3.5,2.8
			c-2.6,2.4-6.5,5.2-9.1,7.7c0.8-2.4,1.7-5.4,2.9-7.5c0.7-1.3,1.1-2.6,1.9-3.9c1-1.4,1.8-2.9,2.8-4.4c1.3-2,3.7-4.7,3.8-7.2
			c0.1-1.9-2.3-4.3-4.6-3.6c-3.9,5.4-6.4,12.1-9.4,17.8c-1.9,5.1-4.5,10.4-5.2,15.8l-0.3,2.7c-0.2,1.6-0.3,3.3,0,4.9
			c0.3,1.4,0.9,2.5,2.1,3.2c2,1.3,2.2-2.1,2.3-3.3c0.2-1.9,0.6-3.7,1.2-5.5l-0.9,3.6c1.7,1.2,2.3,2.9,4.3,3.4c3.7,1,7.1-1.3,9.9-3.2
			c1-0.7,4.3-2.3,5.3-4c0.5-0.8,0.4-1.5-0.5-2.3c-1.1-0.8-2.8,0.9-3.8,1.5c-1.8,1-3.5,2.1-5.4,3c-0.6,0.3-6,1.8-6,1.9
			c0.5-2.1,1.2-4.1,2.2-6c1.8-3.4,4-6.7,7-9.2c1.5-1.2,3-2.4,4.6-3.5c0.8-0.6,1.6-1.2,2.3-1.7c0.7-0.5,2.3-0.4,2.9-1
			C302.6,22,302.2,21.1,301.8,20.5"/>
		<path id="XMLID_1126_" class="st0" d="M304.4,28.2c0.1-1.1,0.4-2.1,0.7-3c0.3-1,0.6-2,1.1-2.9c0.8-1.7,1.9-3.2,3.3-4.5
			c1.4-1.2,2.9-2.2,4.6-2.8c1.5-0.6,4.3-1.8,5.9-1.2c0.8,0.3,3.5,2.4,2.4,3.5c-1.1,1.2-1.9,0.8-3.1,1.3c-3.6,1.6-11.6,7-10.2,12.7
			c0.1,0.2,0.4,0.8,0.5,0.9c2.5,2.6,12.4,5.3,7.8,10.8c-1.9,2.3-5.2,3.5-8.2,4.9c-1.3,0.6-2.8,1.4-4.4,2.2s-4.6,3.1-6.4,1.3
			c-1.4-1.5,1.3-2.7,2.3-3.4c1.4-0.9,2.9-1.8,4.3-2.7c2.8-1.9,5.4-4,7.2-6.9c0.2-0.4-6.5-5.2-7.1-6.1
			C304.4,31.1,304.2,29.6,304.4,28.2"/>
		<path id="XMLID_1127_" class="st1" d="M33.9,39.3c-2.7,2.2-6,3.3-9.4,3.3c-8.3,0-14.8-6.6-14.8-15.1s6.5-15.1,14.8-15.1
			c3.4,0,6.7,1.1,9.4,3.3l0.1,0.1l6.4-6.4l-0.1-0.1c-4.4-3.8-10-5.9-15.8-5.9C11,3.2,0,14,0,27.4s11,24.2,24.5,24.2
			c5.8,0,11.4-2.1,15.8-5.9l0.1-0.1L34,39.2C34,39.2,33.9,39.3,33.9,39.3z M49.2,50.3h9.3V4.5h-9.3V50.3z M95,33.7
			C94.6,33.2,78.8,4.4,78.8,4.4h-9v45.8H79V22.9c0.7,1.2,16,27.7,16,27.7s15.2-26.5,15.9-27.7v27.3h9.2V4.4h-9
			C111,4.4,95.3,33.2,95,33.7 M158.2,26.8c2-1.1,5.4-4.3,5.4-9.4c0-8-5.4-12.9-14.2-12.9H131v45.8h19.2c8.7,0,14.1-5.1,14.1-13.3
			C164.2,30.9,160.6,28,158.2,26.8 M140.2,12.8h8.5c3.6,0,5.7,1.9,5.7,5s-2.1,5-5.7,5h-8.5V12.8z M149.2,42h-9V31.2h9
			c4.2,0,5.7,2.8,5.7,5.4C154.9,39.2,153.4,42,149.2,42"/>
	</g>
</g>
</svg>
