<?xml version="1.0" encoding="UTF-8" standalone="no"?>
<svg width="24px" height="24px" viewBox="0 0 24 24" version="1.1" xmlns="http://www.w3.org/2000/svg" xmlns:xlink="http://www.w3.org/1999/xlink">
    <!-- Generator: Sketch 39.1 (31720) - http://www.bohemiancoding.com/sketch -->
    <title>tool</title>
    <desc>Created with Sketch.</desc>
    <defs>
        <path d="M11.287278,0 C5.0532368,0 0,5.04088684 0,11.2598151 C0,17.4786884 5.0532368,22.5196302 11.287278,22.5196302 C17.5213193,22.5196302 22.5745561,17.4786884 22.5745561,11.2598151 C22.5745561,5.04088684 17.5213193,0 11.287278,0 L11.287278,0 Z M11.287278,21.6399614 C5.54033995,21.6399614 0.881814292,16.9927103 0.881814292,11.2598151 C0.881814292,5.52685981 5.54033995,0.879668758 11.287278,0.879668758 C17.0341559,0.879668758 21.6927418,5.52685981 21.6927418,11.2598151 C21.6927418,16.9927103 17.0341559,21.6399614 11.287278,21.6399614 L11.287278,21.6399614 Z" id="path-1"></path>
        <mask id="mask-2" maskContentUnits="userSpaceOnUse" maskUnits="objectBoundingBox" x="-0.1" y="-0.1" width="22.7745561" height="22.7196302">
            <rect x="-0.1" y="-0.1" width="22.7745561" height="22.7196302" fill="white"></rect>
            <use xlink:href="#path-1" fill="black"></use>
        </mask>
    </defs>
    <g id="Page-1" stroke="none" stroke-width="1" fill="none" fill-rule="evenodd">
        <g id="416_StyleGuide-Copy-22" transform="translate(-1113.000000, -324.000000)">
            <g id="tool" transform="translate(1114.000000, 325.000000)">
                <g id="Group-3">
                    <g id="Group-10">
                        <g id="Fill-1">
                            <use fill="#000000" fill-rule="evenodd" xlink:href="#path-1"></use>
                            <use stroke="#000000" mask="url(#mask-2)" stroke-width="0.2" xlink:href="#path-1"></use>
                        </g>
                        <path d="M13.7994269,10.465321 L13.7994269,8.40123608 C13.7994269,6.88378963 12.5647601,5.64912281 11.0473136,5.64912281 C9.52986719,5.64912281 8.29520037,6.88378963 8.29520037,8.40123608 L8.29520037,10.465321 C7.72620095,10.465321 7.26315789,10.9283641 7.26315789,11.4973635 L7.26315789,15.6255334 C7.26315789,16.1945329 7.72620095,16.6575759 8.29520037,16.6575759 L13.7994269,16.6575759 C14.3684263,16.6575759 14.8314694,16.1945329 14.8314694,15.6255334 L14.8314694,11.4973635 C14.8314694,10.9283641 14.3684263,10.465321 13.7994269,10.465321 L13.7994269,10.465321 Z M8.98322869,8.40123608 C8.98322869,7.26289323 9.9089708,6.33715113 11.0473136,6.33715113 C12.1856565,6.33715113 13.1113986,7.26289323 13.1113986,8.40123608 L13.1113986,10.465321 L8.98322869,10.465321 L8.98322869,8.40123608 L8.98322869,8.40123608 Z M14.1434411,15.6255334 C14.1434411,15.8154292 13.9889787,15.9695476 13.7994269,15.9695476 L8.29520037,15.9695476 C8.10564857,15.9695476 7.95118621,15.8154292 7.95118621,15.6255334 L7.95118621,11.4973635 C7.95118621,11.3074677 8.10564857,11.1533494 8.29520037,11.1533494 L13.7994269,11.1533494 C13.9889787,11.1533494 14.1434411,11.3074677 14.1434411,11.4973635 L14.1434411,15.6255334 L14.1434411,15.6255334 Z M11.3913278,13.3127262 L11.3913278,12.529406 C11.3913278,12.3391662 11.2372095,12.1853918 11.0473136,12.1853918 C10.8574178,12.1853918 10.7032995,12.3391662 10.7032995,12.529406 L10.7032995,13.3127262 C10.4986111,13.4320992 10.3592853,13.6512362 10.3592853,13.9054626 C10.3592853,14.2852543 10.667522,14.593491 11.0473136,14.593491 C11.4271053,14.593491 11.735342,14.2852543 11.735342,13.9054626 C11.735342,13.6515802 11.5963602,13.4320992 11.3913278,13.3127262 L11.3913278,13.3127262 Z" id="Shape" fill="#000000"></path>
                    </g>
                </g>
            </g>
        </g>
    </g>
</svg>