<?xml version="1.0" encoding="UTF-8"?>
<svg width="32px" height="20px" viewBox="0 0 32 20" version="1.1" xmlns="http://www.w3.org/2000/svg" xmlns:xlink="http://www.w3.org/1999/xlink">
    <!-- Generator: Sketch 47.1 (45422) - http://www.bohemiancoding.com/sketch -->
    <title>stocks-graphic-on-laptop-monitor</title>
    <desc>Created with Sketch.</desc>
    <defs>
        <polygon id="path-1" points="15.8520567 0.0150943396 0 0.0150943396 0 19.6230189 31.7041134 19.6230189 31.7041134 0.0150943396 15.8520567 0.0150943396"></polygon>
    </defs>
    <g id="Wealth" stroke="none" stroke-width="1" fill="none" fill-rule="evenodd">
        <g id="0101_Artboard-1-Copy-17" transform="translate(-537.000000, -605.000000)">
            <g id="Group-27" transform="translate(517.000000, 585.000000)">
                <g id="Group-13">
                    <g id="stocks-graphic-on-laptop-monitor" transform="translate(20.000000, 20.000000)">
                        <g id="Group-4">
                            <mask id="mask-2" fill="white">
                                <use xlink:href="#path-1"></use>
                            </mask>
                            <g id="Clip-2"></g>
                            <path d="M2.84952381,17.3649057 L28.855619,17.3649057 C29.528381,17.3649057 30.0742857,16.8222642 30.0742857,16.1558491 L30.0742857,1.22226415 C30.0742857,0.556226415 29.528381,0.0150943396 28.855619,0.0150943396 L2.84952381,0.0150943396 C2.17714286,0.0150943396 1.62933333,0.556226415 1.62933333,1.22226415 L1.62933333,16.1558491 C1.62933333,16.8222642 2.17714286,17.3649057 2.84952381,17.3649057 L2.84952381,17.3649057 Z M2.84952381,1.22226415 L28.855619,1.22226415 L28.8571429,16.1558491 L2.84952381,16.1558491 L2.84952381,1.22226415 Z" id="Fill-1" fill="#000000" mask="url(#mask-2)"></path>
                            <path d="M31.3973333,18.0913208 L0.315428571,18.0913208 C0.195047619,18.0913208 0.0864761905,18.1607547 0.0358095238,18.2698113 C-0.020952381,18.390566 -0.0102857143,18.5233962 0.0624761905,18.6369811 C0.192,18.8358491 0.406095238,19.1690566 5.30209524,19.410566 C8.06704762,19.5479245 11.7542857,19.6230189 15.6830476,19.6230189 C19.2099048,19.6230189 30.7798095,19.5535849 31.5954286,18.6720755 C31.6742857,18.5867925 31.7127619,18.4792453 31.7024762,18.3701887 C31.6891429,18.2124528 31.5565714,18.0913208 31.3973333,18.0913208 L31.3973333,18.0913208 Z" id="Fill-3" fill="#000000" mask="url(#mask-2)"></path>
                        </g>
                        <path d="M25.9881905,4.99735849 C25.4659048,4.99735849 25.04,5.41886792 25.04,5.93622642 C25.04,6.04830189 25.0624762,6.15584906 25.0998095,6.25471698 L22.9984762,8.78264151 C22.9329524,8.76943396 22.8647619,8.76075472 22.7961905,8.76075472 C22.576,8.76075472 22.376381,8.83735849 22.2140952,8.96264151 L19.8228571,7.77735849 C19.7649524,7.31169811 19.3691429,6.9490566 18.8838095,6.9490566 C18.3615238,6.9490566 17.936,7.37056604 17.936,7.88943396 C17.936,7.94981132 17.9420952,8.00754717 17.9539048,8.06490566 L15.6354286,10.1464151 C15.5222857,10.0992453 15.3973333,10.0724528 15.2662857,10.0724528 C15.1234286,10.0724528 14.9897143,10.1049057 14.8674286,10.1611321 L11.9820952,7.56528302 C11.9912381,7.51207547 11.9984762,7.45773585 11.9984762,7.40150943 C11.9984762,6.88415094 11.5729524,6.46264151 11.0491429,6.46264151 C10.6769524,6.46264151 10.3558095,6.67924528 10.2007619,6.99018868 L6.51771429,7.28075472 C6.34971429,7.01698113 6.05371429,6.84 5.71580952,6.84 C5.19352381,6.84 4.76647619,7.26150943 4.76647619,7.77886792 C4.76647619,8.29773585 5.19352381,8.71924528 5.71580952,8.71924528 C6.09219048,8.71924528 6.4152381,8.49962264 6.56838095,8.18566038 L10.2457143,7.89396226 C10.4121905,8.16226415 10.7081905,8.34188679 11.0491429,8.34188679 C11.175619,8.34188679 11.296,8.3154717 11.407619,8.27132075 L14.3272381,10.8981132 C14.3230476,10.9362264 14.3169524,10.9732075 14.3169524,11.0116981 C14.3169524,11.530566 14.7424762,11.9520755 15.2647619,11.9520755 C15.7885714,11.9520755 16.2140952,11.530566 16.2140952,11.0116981 C16.2140952,10.96 16.2068571,10.9113208 16.1992381,10.8611321 L18.5386667,8.76226415 C18.6457143,8.80490566 18.7619048,8.82981132 18.8838095,8.82981132 C19.1085714,8.82981132 19.312381,8.74754717 19.4761905,8.61924528 L21.855619,9.79849057 C21.9062857,10.2701887 22.3066667,10.6415094 22.7961905,10.6415094 C23.3184762,10.6415094 23.744,10.2184906 23.744,9.70113208 C23.744,9.5890566 23.7219048,9.48150943 23.6845714,9.38113208 L25.7859048,6.85471698 C25.8510476,6.86943396 25.919619,6.87698113 25.9881905,6.87698113 C26.512,6.87698113 26.9375238,6.45509434 26.9375238,5.93773585 C26.9375238,5.41886792 26.512,4.99735849 25.9881905,4.99735849 L25.9881905,4.99735849 Z M5.71580952,8.26679245 C5.44495238,8.26679245 5.2247619,8.04867925 5.2247619,7.77886792 C5.2247619,7.51056604 5.44495238,7.29245283 5.71580952,7.29245283 C5.98819048,7.29245283 6.20838095,7.51056604 6.20838095,7.77886792 C6.20838095,8.04867925 5.98819048,8.26679245 5.71580952,8.26679245 L5.71580952,8.26679245 Z M11.0491429,7.88943396 C10.7782857,7.88943396 10.5580952,7.67132075 10.5580952,7.40150943 C10.5580952,7.13320755 10.7782857,6.91509434 11.0491429,6.91509434 C11.3215238,6.91509434 11.5417143,7.13320755 11.5417143,7.40150943 C11.5417143,7.67132075 11.3215238,7.88943396 11.0491429,7.88943396 L11.0491429,7.88943396 Z M15.2647619,11.4996226 C14.9939048,11.4996226 14.7737143,11.2811321 14.7737143,11.0116981 C14.7737143,10.7433962 14.9939048,10.525283 15.2647619,10.525283 C15.5371429,10.525283 15.7573333,10.7433962 15.7573333,11.0116981 C15.7573333,11.2811321 15.5371429,11.4996226 15.2647619,11.4996226 L15.2647619,11.4996226 Z M18.8838095,8.37735849 C18.6129524,8.37735849 18.3927619,8.15773585 18.3927619,7.88943396 C18.3927619,7.62113208 18.6129524,7.40150943 18.8838095,7.40150943 C19.1561905,7.40150943 19.376381,7.62113208 19.376381,7.88943396 C19.376381,8.15773585 19.1561905,8.37735849 18.8838095,8.37735849 L18.8838095,8.37735849 Z M22.7961905,10.1875472 C22.5238095,10.1875472 22.303619,9.96943396 22.303619,9.70113208 C22.303619,9.43132075 22.5238095,9.21320755 22.7961905,9.21320755 C23.0670476,9.21320755 23.2872381,9.43132075 23.2872381,9.70113208 C23.2872381,9.96943396 23.0670476,10.1875472 22.7961905,10.1875472 L22.7961905,10.1875472 Z M25.9881905,6.42415094 C25.7173333,6.42415094 25.4971429,6.20603774 25.4971429,5.93773585 C25.4971429,5.66792453 25.7173333,5.44981132 25.9881905,5.44981132 C26.2605714,5.44981132 26.4807619,5.66792453 26.4807619,5.93773585 C26.4807619,6.20603774 26.2605714,6.42415094 25.9881905,6.42415094 L25.9881905,6.42415094 Z" id="Fill-5" fill="#000000"></path>
                    </g>
                </g>
            </g>
        </g>
    </g>
</svg>