<?xml version="1.0" encoding="UTF-8" standalone="no"?>
<svg width="23px" height="23px" viewBox="0 0 23 23" version="1.1" xmlns="http://www.w3.org/2000/svg" xmlns:xlink="http://www.w3.org/1999/xlink">
    <!-- Generator: Sketch 39.1 (31720) - http://www.bohemiancoding.com/sketch -->
    <title>Fill 1</title>
    <desc>Created with Sketch.</desc>
    <defs></defs>
    <g id="Page-1" stroke="none" stroke-width="1" fill="none" fill-rule="evenodd">
        <g class="profileImage" id="414_StyleGuide-Copy-20" transform="translate(-1033.000000, -340.000000)" >
            <path fill="#000000" d="M1056,351.501268 C1056,345.163986 1050.83601,340 1044.49854,340 C1038.16121,340 1033,345.163986 1033,351.501268 C1033,354.991889 1034.58364,358.132015 1037.04753,360.242642 C1037.07727,360.272566 1037.10719,360.302491 1037.16427,360.329643 C1039.15821,362.003009 1041.71145,363 1044.52842,363 C1047.28559,363 1049.83902,362.003009 1051.83296,360.389445 C1051.9497,360.359568 1052.03942,360.272566 1052.0965,360.183028 C1054.47597,358.04243 1056,354.961965 1056,351.501268 L1056,351.501268 Z M1034.05661,351.501268 C1034.05661,345.750634 1038.75063,341.056605 1044.50127,341.056605 C1050.2519,341.056605 1054.94593,345.750634 1054.94593,351.501268 C1054.94593,354.31824 1053.83225,356.868947 1052.01227,358.748729 C1051.71885,357.368781 1050.83874,355.021814 1048.13869,353.497976 C1048.75526,352.734601 1049.10557,351.737609 1049.10557,350.681004 C1049.10557,348.15745 1047.05197,346.103901 1044.52842,346.103901 C1042.00491,346.103901 1039.95132,348.15745 1039.95132,350.681004 C1039.95132,351.737609 1040.3315,352.704676 1040.91838,353.497976 C1038.19386,355.021814 1037.31361,357.368781 1037.05012,358.748729 C1035.20021,356.898871 1034.05661,354.31824 1034.05661,351.501268 L1034.05661,351.501268 Z M1040.98077,350.708157 C1040.98077,348.771298 1042.5646,347.187659 1044.50127,347.187659 C1046.43817,347.187659 1048.02181,348.771298 1048.02181,350.708157 C1048.02181,352.644875 1046.43817,354.228702 1044.50127,354.228702 C1042.5646,354.228702 1040.98077,352.644875 1040.98077,350.708157 L1040.98077,350.708157 Z M1037.98726,359.655994 C1038.04711,358.805806 1038.51429,355.929032 1041.6843,354.315468 C1042.4776,354.932229 1043.44466,355.282536 1044.50127,355.282536 C1045.55806,355.282536 1046.55486,354.902351 1047.34816,354.285591 C1050.48824,355.899108 1050.98535,358.71608 1051.07513,359.62607 C1049.28484,361.063094 1046.99767,361.94316 1044.53392,361.94316 C1042.03756,361.945932 1039.7775,361.095743 1037.98726,359.655994 L1037.98726,359.655994 Z" id="Fill-1"></path>
        </g>
    </g>
</svg>