<?xml version="1.0" encoding="utf-8"?>
<!-- Generator: Adobe Illustrator 18.0.0, SVG Export Plug-In . SVG Version: 6.00 Build 0)  -->
<!DOCTYPE svg PUBLIC "-//W3C//DTD SVG 1.1//EN" "http://www.w3.org/Graphics/SVG/1.1/DTD/svg11.dtd">
<svg version="1.1" id="Layer_1" xmlns="http://www.w3.org/2000/svg" xmlns:xlink="http://www.w3.org/1999/xlink" x="0px" y="0px"
	 width="513.1px" height="118.5px" viewBox="-0.5 196.6 513.1 118.5" enable-background="new -0.5 196.6 513.1 118.5"
	 xml:space="preserve">
<g id="XMLID_1118_">
	<g id="XMLID_1119_">
		<path id="XMLID_1120_" fill="#FFFFFF" stroke="#FFFFFF" stroke-miterlimit="10" d="M364.7,235.8c3.5-7.5,10-19.7,15.2-27.5
			c2.2-3.3,4.4-7.3,7.9-9.7c1.4-1.1,3.2-1.7,5.1-1.4c1,0.2,1.9,0.8,2.7,1.3c2.4,1.9-0.5,5.6-1.6,7.5c-1.7,3-4,5.9-5.9,8.7
			c-4.6,7.5-9.2,15.1-13.2,23.2c-2.2,4.4-4.1,8.9-6,13.3c-0.6,1.7-5.1,11.3-3.5,12.2c1.9,1.1,4.6-2.5,5.7-3.5c1-0.8,3.2-2.7,4.4-2.2
			c3.2,1.3-0.6,6.8-1.6,8.4c-2.7,4.4-6.5,8.4-11.7,8.6c-4.4,0.2-8.1-3.3-8.6-8.1c-0.3-3,0.3-6,1-8.9
			C356.5,250,360.7,242.9,364.7,235.8"/>
		<path id="XMLID_1121_" fill="#FFFFFF" stroke="#FFFFFF" stroke-miterlimit="10" d="M350.1,256.9c0,0.5-0.2,1.1-0.5,1.7
			c-1.3,2.9-5.2,4.3-7.8,5.9c-4.1,2.7-8.4,5.2-13,7.5c-7.6,3.7-14.6,7.8-26.7,2.4c-9.2-4.1-10.8-15.6-6.3-27.5
			c3.8-10.2,11-19,19.5-26.8c8.6-7.8,18.1-15.1,24.9-15.9c2.5-0.3,5.1,0.2,7.1,1.9c4,3.5,3.5,10.3,1.3,14.6
			c-1.3,2.7-2.7,4.4-5.6,4.9c-2.4,0.3-5.4-0.5-4.9-3.8c0.3-1.9,2.4-5.4,1.1-7.3c-1.7-2.4-8.1,3.2-9.5,4.3c-2.7,2.1-5.2,4.3-7.8,6.7
			c-4.3,4.1-7.9,9.5-11,14.8c-3.5,6.2-6.7,13.3-6.7,20.6c0,2.4,0.2,4.9,1.3,7c3.3,5.6,11.7,1.6,16,0c4.3-1.6,8.4-3.5,12.4-5.6
			c4.1-2.2,7.9-4.9,11.9-7.3C348.7,253.7,350.1,255,350.1,256.9"/>
		<path id="XMLID_1122_" fill="#FFFFFF" stroke="#FFFFFF" stroke-miterlimit="10" d="M400.3,209.6c1.9,5.4,4.1,10.5,10.3,12.2
			C410.6,216.9,407.3,207,400.3,209.6"/>
		<path id="XMLID_1123_" fill="#FFFFFF" stroke="#FFFFFF" stroke-miterlimit="10" d="M399.8,239.9c-0.2-1.3-0.8-2.4-2.2-3.7
			c-1.7-1.6-4.3-2.2-6-0.2c-1.3,1.6-1.7,3.7-2.5,5.4c-1.1,2.9-2.1,5.7-3.2,8.6c-2.2,6.2-4,12.5-5.1,18.9c1.3,1.6,2.2,3.5,5.6,3.2
			c3-6.2,6.2-12.4,8.9-18.7c1.4-3.3,2.7-6.5,4-10C399.6,242.3,400,241,399.8,239.9"/>
		<path id="XMLID_1124_" fill="#FFFFFF" stroke="#FFFFFF" stroke-miterlimit="10" d="M432.2,253.4c-0.2,0.3-0.3,0.5-0.3,0.6
			c-0.8,1.1-1.7,2.1-2.7,3c-3.5,3.2-6.5,7-10.2,10c-2.7,2.2-5.9,3.7-9.4,2.4c-4.3-1.6-7.9-7.5-6.7-15.4c1.6-10.2,9.5-24.6,14.8-28.9
			c3.8-3.2,8.6-3,12.4,0.2c2.4,2.1,5.6,5.9,5.6,9.2c0,1-0.2,1.4-0.5,1.7c-1,0.8-2.9-0.5-4-1.4c-1.4-1.1-2.9-2.5-4.8-2.1
			c-1.3,0.3-2.7,1.9-3.7,2.7c-1.4,1.3-2.7,2.7-4,4.3c-2.4,3.2-4.3,6.8-5.7,10.5c-0.6,1.9-4.9,10.2-0.6,10.5c1.4,0.2,2.5-0.6,3.8-1.1
			c1.4-0.5,2.7-1.1,4.1-1.6c2.1-0.8,4.3-1.9,6.3-3c1.7-1,3.7-2.4,5.9-2.9C433,252,432.5,252.7,432.2,253.4"/>
		<path id="XMLID_1125_" fill="#FFFFFF" stroke="#FFFFFF" stroke-miterlimit="10" d="M479,229.6c-0.6-0.8-2.1-2.1-3.2-2.4
			c-2.1-0.5-5.2,1-7,2.1c-2.1,1.3-3.8,2.9-5.6,4.4c-4.1,3.8-10.3,8.3-14.4,12.2c1.3-3.8,2.7-8.6,4.6-11.9c1.1-2.1,1.7-4.1,3-6.2
			c1.6-2.2,2.9-4.6,4.4-7c2.1-3.2,5.9-7.5,6-11.4c0.2-3-3.7-6.8-7.3-5.7c-6.2,8.6-10.2,19.2-14.9,28.3c-3,8.1-7.1,16.5-8.3,25.1
			c-0.2,1.4-0.3,2.9-0.5,4.3c-0.3,2.5-0.5,5.2,0,7.8c0.5,2.2,1.4,4,3.3,5.1c3.2,2.1,3.5-3.3,3.7-5.2c0.3-3,1-5.9,1.9-8.7l-1.4,5.7
			c2.7,1.9,3.7,4.6,6.8,5.4c5.9,1.6,11.3-2.1,15.7-5.1c1.6-1.1,6.8-3.7,8.4-6.3c0.8-1.3,0.6-2.4-0.8-3.7c-1.7-1.3-4.4,1.4-6,2.4
			c-2.9,1.6-5.6,3.3-8.6,4.8c-1,0.5-9.5,2.9-9.5,3c0.8-3.3,1.9-6.5,3.5-9.5c2.9-5.4,6.3-10.6,11.1-14.6c2.4-1.9,4.8-3.8,7.3-5.6
			c1.3-1,2.5-1.9,3.7-2.7c1.1-0.8,3.7-0.6,4.6-1.6C480.3,232,479.6,230.5,479,229.6"/>
		<path id="XMLID_1126_" fill="#FFFFFF" stroke="#FFFFFF" stroke-miterlimit="10" d="M483.1,241.8c0.2-1.7,0.6-3.3,1.1-4.8
			c0.5-1.6,1-3.2,1.7-4.6c1.3-2.7,3-5.1,5.2-7.1c2.2-1.9,4.6-3.5,7.3-4.4c2.4-1,6.8-2.9,9.4-1.9c1.3,0.5,5.6,3.8,3.8,5.6
			c-1.7,1.9-3,1.3-4.9,2.1c-5.7,2.5-18.4,11.1-16.2,20.2c0.2,0.3,0.6,1.3,0.8,1.4c4,4.1,19.7,8.4,12.4,17.1c-3,3.7-8.3,5.6-13,7.8
			c-2.1,1-4.4,2.2-7,3.5c-2.5,1.3-7.3,4.9-10.2,2.1c-2.2-2.4,2.1-4.3,3.7-5.4c2.2-1.4,4.6-2.9,6.8-4.3c4.4-3,8.6-6.3,11.4-11
			c0.3-0.6-10.3-8.3-11.3-9.7C483.1,246.4,482.8,244,483.1,241.8"/>
		<path id="XMLID_1127_" fill="#FFFFFF" stroke="#FFFFFF" stroke-miterlimit="10" d="M53.8,259.4c-4.3,3.5-9.5,5.2-14.9,5.2
			c-13.2,0-23.5-10.5-23.5-24c0-13.5,10.3-24,23.5-24c5.4,0,10.6,1.7,14.9,5.2l0.2,0.2L64.1,212l-0.2-0.2c-7-6-15.9-9.4-25.1-9.4
			C17.5,202.1,0,219.3,0,240.5s17.5,38.4,38.9,38.4c9.2,0,18.1-3.3,25.1-9.4l0.2-0.2L54,259.3L53.8,259.4z M78.1,276.9h14.8v-72.7
			H78.1V276.9z M150.8,250.5c-0.6-0.8-25.7-46.5-25.7-46.5h-14.3v72.7h14.6v-43.3c1.1,1.9,25.4,44,25.4,44s24.1-42.1,25.2-44v43.3
			h14.6V204h-14.3C176.2,204,151.3,249.7,150.8,250.5 M251.1,239.6c3.2-1.7,8.6-6.8,8.6-14.9c0-12.7-8.6-20.5-22.5-20.5h-29.2v72.7
			h30.5c13.8,0,22.4-8.1,22.4-21.1C260.6,246.1,254.9,241.5,251.1,239.6 M222.5,217.4H236c5.7,0,9,3,9,7.9s-3.3,7.9-9,7.9h-13.5
			V217.4z M236.8,263.7h-14.3v-17.1h14.3c6.7,0,9,4.4,9,8.6C245.8,259.3,243.5,263.7,236.8,263.7"/>
	</g>
</g>
<g id="XMLID_261_">
	<g id="XMLID_1135_">
		<path id="XMLID_1136_" fill="#FFFFFF" d="M384.6,314.8l-3.7-13h-0.2c0.2,2.2,0.3,4,0.3,5.2v7.8h-4.3v-18.1h6.5l3.8,12.9h0.2
			l3.7-12.9h6.5v18.1H393v-7.9c0-0.5,0-0.8,0-1.4c0-0.5,0-1.7,0.2-3.7H393l-3.7,13H384.6z"/>
		<path id="XMLID_1138_" fill="#FFFFFF" d="M412.3,314.8l-1-3.3h-5.9l-1,3.3h-5.4l5.9-18.1h6.5l6,18.1H412.3z M410.4,307.3l-0.8-3
			c-0.2-0.6-0.5-1.6-0.6-2.5c-0.3-1.1-0.5-1.7-0.5-2.2c0,0.5-0.2,1.1-0.5,2.1c-0.2,1-0.6,2.9-1.4,5.7H410.4z"/>
		<path id="XMLID_1141_" fill="#FFFFFF" d="M419.6,314.8v-18.1h4.9v14.1h7v4H419.6z"/>
		<path id="XMLID_1143_" fill="#FFFFFF" d="M445.3,314.8l-1-3.3h-5.9l-1,3.3h-5.4l5.9-18.1h6.5l6,18.1H445.3z M443.4,307.3l-0.8-3
			c-0.2-0.6-0.5-1.6-0.6-2.5c-0.3-1.1-0.5-1.7-0.5-2.2c0,0.5-0.2,1.1-0.5,2.1c-0.2,1-0.6,2.9-1.4,5.7H443.4z"/>
		<path id="XMLID_1146_" fill="#FFFFFF" d="M459.1,303.4l3.2-6.7h5.2l-5.9,11v7h-4.9v-7l-5.9-11.1h5.4L459.1,303.4z"/>
		<path id="XMLID_1148_" fill="#FFFFFF" d="M481.4,309.2c0,1.1-0.3,2.1-0.8,3c-0.6,0.8-1.4,1.6-2.5,2.1s-2.4,0.8-3.8,0.8
			c-1.3,0-2.2-0.2-3-0.3c-0.8-0.2-1.6-0.5-2.5-1v-4.3c1,0.5,1.9,0.8,2.9,1.1c1,0.3,1.9,0.5,2.7,0.5s1.3-0.2,1.6-0.3
			c0.3-0.3,0.5-0.6,0.5-1s0-0.5-0.2-0.6c-0.2-0.2-0.3-0.3-0.6-0.6c-0.3-0.2-1.1-0.6-2.4-1.1c-1.1-0.5-2.1-1.1-2.7-1.6
			s-1-1.1-1.3-1.7c-0.3-0.6-0.5-1.4-0.5-2.4c0-1.6,0.6-3,1.7-4c1.3-1,2.9-1.4,4.9-1.4c1.9,0,3.8,0.5,5.7,1.3l-1.4,3.8
			c-1.7-0.8-3.2-1.1-4.4-1.1c-0.6,0-1.1,0.2-1.4,0.3c-0.3,0.2-0.5,0.5-0.5,0.8s0.2,0.6,0.5,1c0.3,0.3,1.4,0.8,3,1.6
			c1.6,0.6,2.7,1.4,3.2,2.2C481.1,307,481.4,308,481.4,309.2z"/>
		<path id="XMLID_1150_" fill="#FFFFFF" d="M484.1,314.8v-18.1h4.9v18.1H484.1z"/>
		<path id="XMLID_1152_" fill="#FFFFFF" d="M504.1,314.8l-1-3.5h-5.9l-1,3.3h-5.4l5.9-18.1h6.5l6,18.1h-5.2V314.8z M502.2,307.3
			l-0.8-3c-0.2-0.6-0.5-1.6-0.6-2.5c-0.3-1.1-0.5-1.7-0.5-2.2c0,0.5-0.2,1.1-0.5,2.1c-0.2,1-0.6,2.9-1.4,5.7H502.2z"/>
	</g>
</g>
</svg>
